<svg width="37" height="39" viewBox="0 0 37 39" fill="none" xmlns="http://www.w3.org/2000/svg">
<path d="M18.4995 18.0497L33.2764 8.04375C32.6823 7.57406 31.9609 7.31774 31.2183 7.3125H5.78078C5.03816 7.31774 4.31675 7.57406 3.72266 8.04375L18.4995 18.0497Z" fill="#C9A24D" fill-opacity="0.8"/>
<path d="M19.1244 20.5238L18.9278 20.6213H18.8353C18.7288 20.6714 18.6158 20.7043 18.5 20.7188C18.404 20.7315 18.3069 20.7315 18.2109 20.7188H18.1184L17.9219 20.6213L2.42812 10.0669C2.3541 10.3613 2.31526 10.6642 2.3125 10.9688V28.0313C2.3125 29.001 2.67796 29.931 3.32847 30.6166C3.97899 31.3023 4.86128 31.6875 5.78125 31.6875H31.2188C32.1387 31.6875 33.021 31.3023 33.6715 30.6166C34.322 29.931 34.6875 29.001 34.6875 28.0313V10.9688C34.6847 10.6642 34.6459 10.3613 34.5719 10.0669L19.1244 20.5238Z" fill="#C9A24D" fill-opacity="0.8"/>
</svg>
