<svg width="358" height="625" viewBox="0 0 358 625" fill="none" xmlns="http://www.w3.org/2000/svg">
<path d="M92.3703 232.308C92.3703 232.308 210.37 105.309 156.87 0.308105C321.883 211.308 118.344 199.308 60.8702 332.308C60.8702 332.308 34.8828 378.808 42.8828 441.308C50.8828 332.308 65.3828 312.308 231.883 172.808C257.87 349.809 121.883 428.809 121.883 428.809C150.383 416.809 172.883 416.809 172.883 416.809C168.383 418.309 122.883 454.809 107.883 490.309C104.383 502.809 88.8828 530.309 107.883 577.809C120.883 594.809 60.8702 527.309 72.8831 446.809C85.8831 378.309 102.383 344.309 147.883 284.309C134.383 286.809 54.5586 385.354 57.3831 463.808C51.3831 581.309 133.87 617.808 133.87 617.808C133.87 617.808 9.39563 575.309 1.38279 439.808C-9.61788 329.809 85.8828 238.309 82.8703 172.808C97.8703 196.309 92.3703 232.308 92.3703 232.308Z" fill="#C9A24D"/>
<path d="M280.37 155.808C266.87 246.808 359 337.808 356.87 471.308C336.5 606.308 220.883 623.808 203.883 623.808C226.883 609.808 307.883 577.809 280.37 463.808C270.383 426.808 256.883 412.308 240.87 364.808C227.883 295.808 254.87 265.808 254.87 265.808C254.87 265.808 249.883 323.308 296.87 359.808C291.383 313.808 267.883 265.808 267.883 265.808C267.883 265.808 254.87 192.308 280.37 155.808Z" fill="#C9A24D"/>
<path d="M243.383 590.808C290.383 497.808 178.383 438.808 222.883 333.808C234.883 416.809 251.629 393.308 272.883 474.808C280.37 553.308 261.383 563.808 243.383 590.808Z" fill="#C9A24D"/>
<path d="M92.3703 232.308C92.3703 232.308 210.37 105.309 156.87 0.308105C321.883 211.308 118.344 199.308 60.8702 332.308C60.8702 332.308 34.8828 378.808 42.8828 441.308C50.8828 332.308 65.3828 312.308 231.883 172.808C257.87 349.809 121.883 428.809 121.883 428.809C150.383 416.809 172.883 416.809 172.883 416.809C168.383 418.309 122.883 454.809 107.883 490.309C104.383 502.809 88.8828 530.309 107.883 577.809C120.883 594.809 60.8702 527.309 72.8831 446.809C85.8831 378.309 102.383 344.309 147.883 284.309C134.383 286.809 54.5586 385.354 57.3831 463.808C51.3831 581.309 133.87 617.808 133.87 617.808C133.87 617.808 9.39563 575.309 1.38279 439.808C-9.61788 329.809 85.8828 238.309 82.8703 172.808C97.8703 196.309 92.3703 232.308 92.3703 232.308Z" stroke="#C9A24D"/>
<path d="M280.37 155.808C266.87 246.808 359 337.808 356.87 471.308C336.5 606.308 220.883 623.808 203.883 623.808C226.883 609.808 307.883 577.809 280.37 463.808C270.383 426.808 256.883 412.308 240.87 364.808C227.883 295.808 254.87 265.808 254.87 265.808C254.87 265.808 249.883 323.308 296.87 359.808C291.383 313.808 267.883 265.808 267.883 265.808C267.883 265.808 254.87 192.308 280.37 155.808Z" stroke="#C9A24D"/>
<path d="M243.383 590.808C290.383 497.808 178.383 438.808 222.883 333.808C234.883 416.809 251.629 393.308 272.883 474.808C280.37 553.308 261.383 563.808 243.383 590.808Z" stroke="#C9A24D"/>
<path d="M151.215 523.215C151.215 523.215 181.674 490.421 167.864 463.308C210.459 517.793 157.919 514.694 143.083 549.037C143.083 549.037 136.375 561.044 138.44 577.183C140.505 549.037 144.248 543.873 187.227 507.851C193.936 553.556 158.833 573.955 158.833 573.955C166.19 570.857 171.998 570.857 171.998 570.857C170.836 571.244 159.091 580.669 155.219 589.836C154.315 593.064 150.314 600.165 155.219 612.43C158.575 616.82 143.083 599.39 146.184 578.603C149.54 560.915 153.799 552.136 165.544 536.643C162.06 537.288 141.454 562.735 142.183 582.993C140.635 613.334 161.927 622.759 161.927 622.759C161.927 622.759 129.796 611.785 127.728 576.796C124.888 548.392 149.54 524.765 148.762 507.851C152.634 513.919 151.215 523.215 151.215 523.215Z" fill="#C9A24D"/>
<path d="M199.744 503.461C196.259 526.959 220.04 550.457 219.491 584.93C214.232 619.789 184.388 624.308 180 624.308C185.937 620.693 206.845 612.43 199.744 582.993C197.165 573.439 193.681 569.695 189.547 557.429C186.195 539.612 193.161 531.865 193.161 531.865C193.161 531.865 191.874 546.713 204.003 556.138C202.586 544.26 196.52 531.865 196.52 531.865C196.52 531.865 193.161 512.886 199.744 503.461Z" fill="#C9A24D"/>
<path d="M190.196 615.787C202.328 591.772 173.417 576.537 184.904 549.424C188.002 570.857 192.324 564.788 197.811 585.833C199.744 606.104 194.842 608.815 190.196 615.787Z" fill="#C9A24D"/>
<path d="M151.215 523.215C151.215 523.215 181.674 490.421 167.864 463.308C210.459 517.793 157.919 514.694 143.083 549.037C143.083 549.037 136.375 561.044 138.44 577.183C140.505 549.037 144.248 543.873 187.227 507.851C193.936 553.556 158.833 573.955 158.833 573.955C166.19 570.857 171.998 570.857 171.998 570.857C170.836 571.244 159.091 580.669 155.219 589.836C154.315 593.064 150.314 600.165 155.219 612.43C158.575 616.82 143.083 599.39 146.184 578.603C149.54 560.915 153.799 552.136 165.544 536.643C162.06 537.288 141.454 562.735 142.183 582.993C140.635 613.334 161.927 622.759 161.927 622.759C161.927 622.759 129.796 611.785 127.728 576.796C124.888 548.392 149.54 524.765 148.762 507.851C152.634 513.919 151.215 523.215 151.215 523.215Z" stroke="#C9A24D"/>
<path d="M199.744 503.461C196.259 526.959 220.04 550.457 219.491 584.93C214.232 619.789 184.388 624.308 180 624.308C185.937 620.693 206.845 612.43 199.744 582.993C197.165 573.439 193.681 569.695 189.547 557.429C186.195 539.612 193.161 531.865 193.161 531.865C193.161 531.865 191.874 546.713 204.003 556.138C202.586 544.26 196.52 531.865 196.52 531.865C196.52 531.865 193.161 512.886 199.744 503.461Z" stroke="#C9A24D"/>
<path d="M190.196 615.787C202.328 591.772 173.417 576.537 184.904 549.424C188.002 570.857 192.324 564.788 197.811 585.833C199.744 606.104 194.842 608.815 190.196 615.787Z" stroke="#C9A24D"/>
</svg>
